<svg xmlns="http://www.w3.org/2000/svg" xmlns:xlink="http://www.w3.org/1999/xlink" width="2000" zoomAndPan="magnify" viewBox="0 0 1500 1499.999933" height="2000" preserveAspectRatio="xMidYMid meet" version="1.0"><defs><g/><clipPath id="c4f58ef623"><path d="M 54 781 L 501 781 L 501 793 L 54 793 Z M 54 781 " clip-rule="nonzero"/></clipPath><clipPath id="be52557795"><path d="M 269 468.171875 L 279 468.171875 L 279 510 L 269 510 Z M 269 468.171875 " clip-rule="nonzero"/></clipPath><clipPath id="0560c9b7cf"><path d="M 206 821 L 349 821 L 349 832.671875 L 206 832.671875 Z M 206 821 " clip-rule="nonzero"/></clipPath></defs><g clip-path="url(#c4f58ef623)"><path fill="#ffb382" d="M 76.949219 792.71875 C 64.289062 792.71875 54.015625 790.273438 54.015625 787.265625 C 54.015625 784.253906 64.289062 781.816406 76.949219 781.816406 L 478.15625 781.816406 C 490.816406 781.816406 501.085938 784.253906 501.085938 787.265625 C 501.085938 790.273438 490.816406 792.71875 478.15625 792.71875 Z M 76.949219 792.71875 " fill-opacity="1" fill-rule="nonzero"/></g><path fill="#ffb382" d="M 363.664062 585.855469 C 341.625 563.820312 311.183594 550.191406 277.550781 550.191406 C 243.921875 550.191406 213.476562 563.820312 191.441406 585.855469 C 170.601562 606.695312 157.28125 635.054688 155.898438 666.515625 L 399.207031 666.515625 C 397.820312 635.050781 384.503906 606.695312 363.664062 585.855469 M 277.550781 539.285156 C 314.191406 539.285156 347.359375 554.136719 371.371094 578.144531 C 395.378906 602.15625 410.234375 635.328125 410.234375 671.964844 L 410.234375 677.421875 L 144.871094 677.421875 L 144.871094 671.964844 C 144.871094 635.328125 159.71875 602.15625 183.730469 578.144531 C 207.738281 554.136719 240.914062 539.285156 277.550781 539.285156 Z M 277.550781 539.285156 " fill-opacity="1" fill-rule="nonzero"/><path fill="#ffb382" d="M 155.773438 671.964844 L 155.773438 686.820312 L 399.324219 686.820312 L 399.324219 671.964844 L 410.234375 671.964844 L 410.234375 697.722656 L 144.871094 697.722656 L 144.871094 671.964844 Z M 155.773438 671.964844 " fill-opacity="1" fill-rule="nonzero"/><path fill="#ffb382" d="M 173.144531 671.964844 L 184.046875 671.964844 L 184.046875 692.269531 L 173.144531 692.269531 Z M 173.144531 671.964844 " fill-opacity="1" fill-rule="nonzero"/><path fill="#ffb382" d="M 201.417969 671.964844 L 212.320312 671.964844 L 212.320312 692.269531 L 201.417969 692.269531 Z M 201.417969 671.964844 " fill-opacity="1" fill-rule="nonzero"/><path fill="#ffb382" d="M 229.6875 671.964844 L 240.59375 671.964844 L 240.59375 692.269531 L 229.6875 692.269531 Z M 229.6875 671.964844 " fill-opacity="1" fill-rule="nonzero"/><path fill="#ffb382" d="M 257.960938 671.964844 L 268.863281 671.964844 L 268.863281 692.269531 L 257.960938 692.269531 Z M 257.960938 671.964844 " fill-opacity="1" fill-rule="nonzero"/><path fill="#ffb382" d="M 286.234375 671.964844 L 297.136719 671.964844 L 297.136719 692.269531 L 286.234375 692.269531 Z M 286.234375 671.964844 " fill-opacity="1" fill-rule="nonzero"/><path fill="#ffb382" d="M 314.507812 671.964844 L 325.410156 671.964844 L 325.410156 692.269531 L 314.507812 692.269531 Z M 314.507812 671.964844 " fill-opacity="1" fill-rule="nonzero"/><path fill="#ffb382" d="M 342.78125 671.964844 L 353.683594 671.964844 L 353.683594 692.269531 L 342.78125 692.269531 Z M 342.78125 671.964844 " fill-opacity="1" fill-rule="nonzero"/><path fill="#ffb382" d="M 371.054688 671.964844 L 381.957031 671.964844 L 381.957031 692.269531 L 371.054688 692.269531 Z M 371.054688 671.964844 " fill-opacity="1" fill-rule="nonzero"/><path fill="#ffb382" d="M 244.511719 546.652344 C 244.511719 534.292969 247.488281 523 252.296875 514.738281 C 257.625 505.582031 265.277344 499.921875 273.992188 499.921875 C 282.703125 499.921875 290.359375 505.582031 295.6875 514.738281 C 300.496094 523 303.46875 534.292969 303.46875 546.652344 L 292.5625 546.652344 C 292.5625 536.21875 290.160156 526.867188 286.269531 520.191406 C 282.90625 514.402344 278.546875 510.824219 273.992188 510.824219 C 269.441406 510.824219 265.074219 514.402344 261.710938 520.191406 C 257.828125 526.867188 255.417969 536.21875 255.417969 546.652344 Z M 244.511719 546.652344 " fill-opacity="1" fill-rule="nonzero"/><g clip-path="url(#be52557795)"><path fill="#ffb382" d="M 278.050781 505.371094 C 278.050781 507.617188 276.234375 509.433594 273.992188 509.433594 C 271.746094 509.433594 269.929688 507.617188 269.929688 505.371094 L 269.929688 472.234375 C 269.929688 469.992188 271.746094 468.171875 273.992188 468.171875 C 276.234375 468.171875 278.050781 469.992188 278.050781 472.234375 Z M 278.050781 505.371094 " fill-opacity="1" fill-rule="nonzero"/></g><path fill="#ffb382" d="M 327.453125 584.8125 C 314.484375 563.421875 296.824219 550.191406 277.550781 550.191406 C 258.28125 550.191406 240.613281 563.421875 227.644531 584.8125 C 214.910156 605.820312 206.769531 634.539062 205.933594 666.515625 L 349.167969 666.515625 C 348.332031 634.539062 340.195312 605.820312 327.453125 584.8125 M 277.550781 539.285156 C 300.878906 539.285156 321.792969 554.535156 336.742188 579.1875 C 351.203125 603.039062 360.144531 635.847656 360.144531 671.964844 L 360.144531 677.421875 L 194.960938 677.421875 L 194.960938 671.964844 C 194.960938 635.847656 203.902344 603.039062 218.363281 579.1875 C 233.308594 554.535156 254.222656 539.285156 277.550781 539.285156 Z M 277.550781 539.285156 " fill-opacity="1" fill-rule="nonzero"/><path fill="#ffb382" d="M 288.242188 582.9375 C 284.632812 562.707031 280.78125 550.191406 277.550781 550.191406 C 274.316406 550.191406 270.46875 562.707031 266.859375 582.9375 C 263.019531 604.472656 260.5625 633.859375 260.3125 666.515625 L 294.789062 666.515625 C 294.539062 633.859375 292.085938 604.472656 288.242188 582.9375 M 277.550781 539.285156 C 286.863281 539.285156 294.367188 555.25 298.980469 581.066406 C 303.140625 604.382812 305.714844 636.527344 305.714844 671.964844 L 305.714844 677.421875 L 249.386719 677.421875 L 249.386719 671.964844 C 249.386719 636.527344 251.964844 604.382812 256.125 581.066406 C 260.730469 555.25 268.238281 539.285156 277.550781 539.285156 Z M 277.550781 539.285156 " fill-opacity="1" fill-rule="nonzero"/><path fill="#ffb382" d="M 425.207031 772.417969 L 129.898438 772.417969 L 129.898438 781.816406 L 425.207031 781.816406 Z M 124.445312 761.507812 L 436.113281 761.507812 L 436.113281 792.71875 L 118.992188 792.71875 L 118.992188 761.507812 Z M 124.445312 761.507812 " fill-opacity="1" fill-rule="nonzero"/><path fill="#ffb382" d="M 149.960938 697.722656 C 144.433594 697.722656 139.417969 699.972656 135.792969 703.597656 L 135.773438 703.621094 C 132.148438 707.242188 129.894531 712.257812 129.894531 717.789062 L 129.894531 761.507812 L 170.027344 761.507812 L 170.027344 717.789062 C 170.027344 712.257812 167.773438 707.242188 164.152344 703.621094 L 164.128906 703.597656 C 160.503906 699.972656 155.488281 697.722656 149.960938 697.722656 M 149.960938 686.820312 C 158.460938 686.820312 166.195312 690.296875 171.8125 695.914062 L 171.839844 695.929688 C 177.445312 701.550781 180.929688 709.289062 180.929688 717.789062 L 180.929688 772.417969 L 118.988281 772.417969 L 118.988281 717.789062 C 118.988281 709.289062 122.472656 701.550781 128.082031 695.929688 L 128.105469 695.914062 C 133.722656 690.296875 141.460938 686.820312 149.960938 686.820312 Z M 149.960938 686.820312 " fill-opacity="1" fill-rule="nonzero"/><path fill="#ffb382" d="M 200.992188 686.820312 C 209.519531 686.820312 217.261719 690.304688 222.871094 695.914062 L 222.863281 695.921875 C 228.484375 701.542969 231.964844 709.28125 231.964844 717.789062 L 231.964844 772.417969 L 170.027344 772.417969 L 170.027344 717.789062 C 170.027344 709.28125 173.511719 701.542969 179.132812 695.921875 L 179.121094 695.914062 C 184.730469 690.300781 192.476562 686.820312 200.992188 686.820312 M 201 697.722656 C 195.484375 697.722656 190.46875 699.980469 186.832031 703.621094 L 186.808594 703.621094 C 183.183594 707.246094 180.929688 712.261719 180.929688 717.789062 L 180.929688 761.507812 L 221.0625 761.507812 L 221.0625 717.789062 C 221.0625 712.261719 218.8125 707.246094 215.183594 703.621094 L 215.164062 703.621094 C 211.527344 699.980469 206.511719 697.722656 201 697.722656 Z M 201 697.722656 " fill-opacity="1" fill-rule="nonzero"/><path fill="#ffb382" d="M 252.035156 697.722656 C 246.507812 697.722656 241.492188 699.972656 237.867188 703.597656 L 237.84375 703.621094 C 234.222656 707.242188 231.964844 712.257812 231.964844 717.789062 L 231.964844 761.507812 L 272.097656 761.507812 L 272.097656 717.789062 C 272.097656 712.257812 269.84375 707.242188 266.21875 703.621094 L 266.199219 703.597656 C 262.578125 699.972656 257.5625 697.722656 252.035156 697.722656 M 252.035156 686.820312 C 260.527344 686.820312 268.265625 690.296875 273.890625 695.914062 L 273.90625 695.929688 C 279.519531 701.550781 283.003906 709.289062 283.003906 717.789062 L 283.003906 772.417969 L 221.0625 772.417969 L 221.0625 717.789062 C 221.0625 709.289062 224.546875 701.550781 230.15625 695.929688 L 230.175781 695.914062 C 235.796875 690.296875 243.535156 686.820312 252.035156 686.820312 Z M 252.035156 686.820312 " fill-opacity="1" fill-rule="nonzero"/><path fill="#ffb382" d="M 303.066406 686.820312 C 311.566406 686.820312 319.304688 690.296875 324.921875 695.914062 L 324.945312 695.929688 C 330.554688 701.550781 334.039062 709.289062 334.039062 717.789062 L 334.039062 772.417969 L 272.097656 772.417969 L 272.097656 717.789062 C 272.097656 709.289062 275.582031 701.550781 281.191406 695.929688 L 281.214844 695.914062 C 286.832031 690.296875 294.570312 686.820312 303.066406 686.820312 M 303.066406 697.722656 C 297.542969 697.722656 292.523438 699.972656 288.902344 703.597656 L 288.882812 703.621094 C 285.257812 707.242188 283.003906 712.257812 283.003906 717.789062 L 283.003906 761.507812 L 323.136719 761.507812 L 323.136719 717.789062 C 323.136719 712.257812 320.882812 707.242188 317.257812 703.621094 L 317.234375 703.597656 C 313.609375 699.972656 308.597656 697.722656 303.066406 697.722656 Z M 303.066406 697.722656 " fill-opacity="1" fill-rule="nonzero"/><path fill="#ffb382" d="M 354.105469 697.722656 C 348.589844 697.722656 343.578125 699.980469 339.933594 703.621094 L 339.917969 703.621094 C 336.292969 707.246094 334.039062 712.261719 334.039062 717.789062 L 334.039062 761.507812 L 374.171875 761.507812 L 374.171875 717.789062 C 374.171875 712.261719 371.914062 707.246094 368.292969 703.621094 L 368.273438 703.621094 C 364.632812 699.980469 359.621094 697.722656 354.105469 697.722656 M 354.101562 686.820312 C 362.628906 686.820312 370.371094 690.304688 375.980469 695.914062 L 375.972656 695.921875 C 381.585938 701.542969 385.074219 709.28125 385.074219 717.789062 L 385.074219 772.417969 L 323.136719 772.417969 L 323.136719 717.789062 C 323.136719 709.28125 326.617188 701.542969 332.238281 695.921875 L 332.230469 695.914062 C 337.839844 690.300781 345.582031 686.820312 354.101562 686.820312 Z M 354.101562 686.820312 " fill-opacity="1" fill-rule="nonzero"/><path fill="#ffb382" d="M 405.136719 686.820312 C 413.636719 686.820312 421.375 690.296875 426.996094 695.914062 L 427.015625 695.929688 C 432.628906 701.550781 436.109375 709.289062 436.109375 717.789062 L 436.109375 772.417969 L 374.171875 772.417969 L 374.171875 717.789062 C 374.171875 709.289062 377.65625 701.550781 383.265625 695.929688 L 383.285156 695.914062 C 388.90625 690.296875 396.644531 686.820312 405.136719 686.820312 M 405.136719 697.722656 C 399.613281 697.722656 394.601562 699.972656 390.976562 703.597656 L 390.953125 703.621094 C 387.328125 707.242188 385.074219 712.257812 385.074219 717.789062 L 385.074219 761.507812 L 425.207031 761.507812 L 425.207031 717.789062 C 425.207031 712.257812 422.953125 707.242188 419.328125 703.621094 L 419.3125 703.597656 C 415.683594 699.972656 410.667969 697.722656 405.136719 697.722656 Z M 405.136719 697.722656 " fill-opacity="1" fill-rule="nonzero"/><path fill="#ffb382" d="M 164.859375 811.417969 C 152.191406 811.417969 141.925781 808.976562 141.925781 805.964844 C 141.925781 802.953125 152.191406 800.511719 164.859375 800.511719 L 390.246094 800.511719 C 402.90625 800.511719 413.175781 802.953125 413.175781 805.964844 C 413.175781 808.976562 402.90625 811.417969 390.246094 811.417969 Z M 164.859375 811.417969 " fill-opacity="1" fill-rule="nonzero"/><g clip-path="url(#0560c9b7cf)"><path fill="#ffb382" d="M 229.835938 832.316406 C 217.167969 832.316406 206.898438 829.878906 206.898438 826.867188 C 206.898438 823.855469 217.167969 821.414062 229.835938 821.414062 L 325.269531 821.414062 C 337.929688 821.414062 348.203125 823.855469 348.203125 826.867188 C 348.203125 829.878906 337.933594 832.316406 325.269531 832.316406 Z M 229.835938 832.316406 " fill-opacity="1" fill-rule="nonzero"/></g><g fill="#ffb382" fill-opacity="1"><g transform="translate(560.778854, 707.852727)"><g><path d="M 17.015625 0 L 17.015625 -116.765625 L 30.6875 -116.765625 L 76.5625 -47.53125 L 122.09375 -116.765625 L 135.765625 -116.765625 L 135.765625 0 L 121.09375 0 L 121.09375 -89.234375 L 82.390625 -31.03125 L 70.390625 -31.03125 L 31.6875 -89.40625 L 31.6875 0 Z M 17.015625 0 "/></g></g></g><g fill="#ffb382" fill-opacity="1"><g transform="translate(719.566073, 707.852727)"><g><path d="M 2.828125 0 L 50.875 -116.765625 L 64.546875 -116.765625 L 112.59375 0 L 97.078125 0 L 86.0625 -26.515625 L 29.1875 -26.515625 L 18.515625 0 Z M 34.859375 -40.203125 L 80.5625 -40.203125 L 57.71875 -96.234375 Z M 34.859375 -40.203125 "/></g></g></g><g fill="#ffb382" fill-opacity="1"><g transform="translate(840.991676, 707.852727)"><g><path d="M 55.875 2.171875 C 46.53125 2.171875 38.4375 0.585938 31.59375 -2.578125 C 24.757812 -5.753906 19.476562 -10.203125 15.75 -15.921875 C 12.03125 -21.648438 10.117188 -28.296875 10.015625 -35.859375 L 24.6875 -35.859375 C 24.90625 -28.410156 27.878906 -22.546875 33.609375 -18.265625 C 39.335938 -13.984375 46.757812 -11.84375 55.875 -11.84375 C 64.101562 -11.84375 70.632812 -13.453125 75.46875 -16.671875 C 80.3125 -19.898438 82.734375 -24.40625 82.734375 -30.1875 C 82.734375 -35.632812 80.394531 -40 75.71875 -43.28125 C 71.050781 -46.5625 63.4375 -49.425781 52.875 -51.875 C 38.53125 -55.320312 28.019531 -59.738281 21.34375 -65.125 C 14.675781 -70.519531 11.34375 -77.722656 11.34375 -86.734375 C 11.34375 -96.628906 15.09375 -104.46875 22.59375 -110.25 C 30.101562 -116.03125 40.253906 -118.921875 53.046875 -118.921875 C 66.160156 -118.921875 76.523438 -115.640625 84.140625 -109.078125 C 91.765625 -102.523438 95.628906 -93.578125 95.734375 -82.234375 L 81.234375 -82.234375 C 81.117188 -89.234375 78.53125 -94.765625 73.46875 -98.828125 C 68.414062 -102.890625 61.609375 -104.921875 53.046875 -104.921875 C 44.703125 -104.921875 38.164062 -103.28125 33.4375 -100 C 28.71875 -96.71875 26.359375 -92.296875 26.359375 -86.734375 C 26.359375 -81.953125 28.550781 -77.921875 32.9375 -74.640625 C 37.332031 -71.359375 45.203125 -68.328125 56.546875 -65.546875 C 71.441406 -61.878906 82.054688 -57.289062 88.390625 -51.78125 C 94.734375 -46.28125 97.90625 -39.25 97.90625 -30.6875 C 97.90625 -20.570312 94.097656 -12.566406 86.484375 -6.671875 C 78.867188 -0.773438 68.664062 2.171875 55.875 2.171875 Z M 55.875 2.171875 "/></g></g></g><g fill="#ffb382" fill-opacity="1"><g transform="translate(954.911557, 707.852727)"><g><path d="M 7.34375 0 L 7.34375 -14.015625 L 24.015625 -14.015625 C 33.359375 -14.015625 39.804688 -16.289062 43.359375 -20.84375 C 46.921875 -25.40625 48.703125 -31.578125 48.703125 -39.359375 L 48.703125 -116.765625 L 63.390625 -116.765625 L 63.390625 -38.53125 C 63.390625 -26.96875 60.191406 -17.65625 53.796875 -10.59375 C 47.398438 -3.53125 37.472656 0 24.015625 0 Z M 7.34375 0 "/></g></g></g><g fill="#ffb382" fill-opacity="1"><g transform="translate(1040.977025, 707.852727)"><g><path d="M 17.015625 0 L 17.015625 -116.765625 L 31.6875 -116.765625 L 31.6875 0 Z M 17.015625 0 "/></g></g></g><g fill="#ffb382" fill-opacity="1"><g transform="translate(1095.685455, 707.852727)"><g><path d="M 17.015625 0 L 17.015625 -116.765625 L 57.375 -116.765625 C 69.382812 -116.765625 79.863281 -114.285156 88.8125 -109.328125 C 97.769531 -104.378906 104.75 -97.539062 109.75 -88.8125 C 114.757812 -80.082031 117.265625 -69.9375 117.265625 -58.375 C 117.265625 -46.925781 114.757812 -36.804688 109.75 -28.015625 C 104.75 -19.234375 97.769531 -12.367188 88.8125 -7.421875 C 79.863281 -2.472656 69.382812 0 57.375 0 Z M 31.6875 -14.015625 L 57.375 -14.015625 C 66.269531 -14.015625 74.082031 -15.875 80.8125 -19.59375 C 87.539062 -23.320312 92.796875 -28.519531 96.578125 -35.1875 C 100.359375 -41.863281 102.25 -49.59375 102.25 -58.375 C 102.25 -67.269531 100.328125 -75.023438 96.484375 -81.640625 C 92.648438 -88.265625 87.34375 -93.4375 80.5625 -97.15625 C 73.78125 -100.882812 65.832031 -102.75 56.71875 -102.75 L 31.6875 -102.75 Z M 31.6875 -14.015625 "/></g></g></g><g fill="#ffb382" fill-opacity="1"><g transform="translate(1228.619742, 707.852727)"><g><path d="M 17.015625 0 L 17.015625 -116.765625 L 31.6875 -116.765625 L 31.6875 -14.015625 L 88.40625 -14.015625 L 88.40625 0 Z M 17.015625 0 "/></g></g></g><g fill="#ffb382" fill-opacity="1"><g transform="translate(1328.195462, 707.852727)"><g><path d="M 46.703125 0 L 46.703125 -42.03125 L 2.828125 -116.765625 L 19.84375 -116.765625 L 38.859375 -84.0625 L 54.046875 -57.71875 L 88.40625 -116.765625 L 104.921875 -116.765625 L 61.046875 -42.03125 L 61.046875 0 Z M 46.703125 0 "/></g></g></g><g fill="#ffb382" fill-opacity="1"><g transform="translate(560.960247, 795.999871)"><g><path d="M 5.09375 0 L 5.09375 -35 L 9.5 -35 L 9.5 -4.203125 L 26.5 -4.203125 L 26.5 0 Z M 5.09375 0 "/></g></g></g><g fill="#ffb382" fill-opacity="1"><g transform="translate(590.805898, 795.999871)"><g><path d="M 21 0.65625 C 17.46875 0.65625 14.332031 -0.117188 11.59375 -1.671875 C 8.863281 -3.222656 6.734375 -5.363281 5.203125 -8.09375 C 3.671875 -10.832031 2.90625 -13.96875 2.90625 -17.5 C 2.90625 -21.0625 3.671875 -24.203125 5.203125 -26.921875 C 6.734375 -29.640625 8.863281 -31.773438 11.59375 -33.328125 C 14.332031 -34.878906 17.46875 -35.65625 21 -35.65625 C 24.5625 -35.65625 27.703125 -34.878906 30.421875 -33.328125 C 33.140625 -31.773438 35.273438 -29.640625 36.828125 -26.921875 C 38.378906 -24.203125 39.15625 -21.0625 39.15625 -17.5 C 39.15625 -13.96875 38.378906 -10.832031 36.828125 -8.09375 C 35.273438 -5.363281 33.140625 -3.222656 30.421875 -1.671875 C 27.703125 -0.117188 24.5625 0.65625 21 0.65625 Z M 7.40625 -17.5 C 7.40625 -14.800781 7.976562 -12.414062 9.125 -10.34375 C 10.269531 -8.28125 11.867188 -6.664062 13.921875 -5.5 C 15.972656 -4.332031 18.332031 -3.75 21 -3.75 C 23.695312 -3.75 26.0625 -4.332031 28.09375 -5.5 C 30.132812 -6.664062 31.726562 -8.28125 32.875 -10.34375 C 34.019531 -12.414062 34.59375 -14.800781 34.59375 -17.5 C 34.59375 -20.226562 34.019531 -22.617188 32.875 -24.671875 C 31.726562 -26.722656 30.132812 -28.332031 28.09375 -29.5 C 26.0625 -30.664062 23.695312 -31.25 21 -31.25 C 18.332031 -31.25 15.972656 -30.664062 13.921875 -29.5 C 11.867188 -28.332031 10.269531 -26.722656 9.125 -24.671875 C 7.976562 -22.617188 7.40625 -20.226562 7.40625 -17.5 Z M 7.40625 -17.5 "/></g></g></g><g fill="#ffb382" fill-opacity="1"><g transform="translate(634.59939, 795.999871)"><g><path d="M 20.59375 0.65625 C 18.03125 0.65625 15.664062 0.207031 13.5 -0.6875 C 11.332031 -1.59375 9.457031 -2.851562 7.875 -4.46875 C 6.289062 -6.09375 5.066406 -8.007812 4.203125 -10.21875 C 3.335938 -12.4375 2.90625 -14.863281 2.90625 -17.5 C 2.90625 -20.132812 3.335938 -22.554688 4.203125 -24.765625 C 5.066406 -26.984375 6.289062 -28.898438 7.875 -30.515625 C 9.457031 -32.140625 11.332031 -33.398438 13.5 -34.296875 C 15.664062 -35.203125 18.03125 -35.65625 20.59375 -35.65625 C 23.363281 -35.65625 25.90625 -35.144531 28.21875 -34.125 C 30.539062 -33.101562 32.523438 -31.648438 34.171875 -29.765625 C 35.828125 -27.890625 37.035156 -25.664062 37.796875 -23.09375 L 33.09375 -23.09375 C 32.195312 -25.632812 30.640625 -27.628906 28.421875 -29.078125 C 26.203125 -30.523438 23.644531 -31.25 20.75 -31.25 C 18.144531 -31.25 15.84375 -30.664062 13.84375 -29.5 C 11.84375 -28.332031 10.269531 -26.710938 9.125 -24.640625 C 7.976562 -22.578125 7.40625 -20.195312 7.40625 -17.5 C 7.40625 -14.800781 7.976562 -12.414062 9.125 -10.34375 C 10.269531 -8.28125 11.84375 -6.664062 13.84375 -5.5 C 15.84375 -4.332031 18.144531 -3.75 20.75 -3.75 C 23.71875 -3.75 26.347656 -4.515625 28.640625 -6.046875 C 30.941406 -7.578125 32.546875 -9.660156 33.453125 -12.296875 L 38.09375 -12.296875 C 37.394531 -9.703125 36.203125 -7.4375 34.515625 -5.5 C 32.835938 -3.5625 30.804688 -2.050781 28.421875 -0.96875 C 26.035156 0.113281 23.425781 0.65625 20.59375 0.65625 Z M 20.59375 0.65625 "/></g></g></g><g fill="#ffb382" fill-opacity="1"><g transform="translate(677.193071, 795.999871)"><g><path d="M 0.84375 0 L 15.25 -35 L 19.34375 -35 L 33.75 0 L 29.09375 0 L 25.796875 -7.953125 L 8.75 -7.953125 L 5.546875 0 Z M 10.453125 -12.046875 L 24.15625 -12.046875 L 17.296875 -28.84375 Z M 10.453125 -12.046875 "/></g></g></g><g fill="#ffb382" fill-opacity="1"><g transform="translate(713.587706, 795.999871)"><g><path d="M 5.09375 0 L 5.09375 -35 L 9.5 -35 L 9.5 -4.203125 L 26.5 -4.203125 L 26.5 0 Z M 5.09375 0 "/></g></g></g><g fill="#ffb382" fill-opacity="1"><g transform="translate(757.631434, 795.999871)"><g><path d="M 5.09375 0 L 5.09375 -35 L 9.203125 -35 L 22.953125 -14.25 L 36.59375 -35 L 40.703125 -35 L 40.703125 0 L 36.296875 0 L 36.296875 -26.75 L 24.703125 -9.296875 L 21.09375 -9.296875 L 9.5 -26.796875 L 9.5 0 Z M 5.09375 0 "/></g></g></g><g fill="#ffb382" fill-opacity="1"><g transform="translate(805.22434, 795.999871)"><g><path d="M 0.84375 0 L 15.25 -35 L 19.34375 -35 L 33.75 0 L 29.09375 0 L 25.796875 -7.953125 L 8.75 -7.953125 L 5.546875 0 Z M 10.453125 -12.046875 L 24.15625 -12.046875 L 17.296875 -28.84375 Z M 10.453125 -12.046875 "/></g></g></g><g fill="#ffb382" fill-opacity="1"><g transform="translate(841.618975, 795.999871)"><g><path d="M 16.75 0.65625 C 13.945312 0.65625 11.519531 0.179688 9.46875 -0.765625 C 7.425781 -1.722656 5.84375 -3.054688 4.71875 -4.765625 C 3.601562 -6.484375 3.03125 -8.476562 3 -10.75 L 7.40625 -10.75 C 7.46875 -8.519531 8.359375 -6.757812 10.078125 -5.46875 C 11.796875 -4.1875 14.019531 -3.546875 16.75 -3.546875 C 19.21875 -3.546875 21.175781 -4.03125 22.625 -5 C 24.070312 -5.96875 24.796875 -7.316406 24.796875 -9.046875 C 24.796875 -10.679688 24.09375 -11.988281 22.6875 -12.96875 C 21.289062 -13.957031 19.007812 -14.816406 15.84375 -15.546875 C 11.550781 -16.578125 8.40625 -17.898438 6.40625 -19.515625 C 4.40625 -21.140625 3.40625 -23.300781 3.40625 -26 C 3.40625 -28.96875 4.53125 -31.316406 6.78125 -33.046875 C 9.03125 -34.785156 12.070312 -35.65625 15.90625 -35.65625 C 19.832031 -35.65625 22.9375 -34.671875 25.21875 -32.703125 C 27.507812 -30.734375 28.671875 -28.050781 28.703125 -24.65625 L 24.34375 -24.65625 C 24.3125 -26.75 23.535156 -28.40625 22.015625 -29.625 C 20.503906 -30.84375 18.46875 -31.453125 15.90625 -31.453125 C 13.40625 -31.453125 11.445312 -30.957031 10.03125 -29.96875 C 8.613281 -28.988281 7.90625 -27.664062 7.90625 -26 C 7.90625 -24.5625 8.5625 -23.351562 9.875 -22.375 C 11.1875 -21.394531 13.546875 -20.488281 16.953125 -19.65625 C 21.421875 -18.550781 24.601562 -17.171875 26.5 -15.515625 C 28.394531 -13.867188 29.34375 -11.765625 29.34375 -9.203125 C 29.34375 -6.171875 28.203125 -3.769531 25.921875 -2 C 23.640625 -0.226562 20.582031 0.65625 16.75 0.65625 Z M 16.75 0.65625 "/></g></g></g><g fill="#ffb382" fill-opacity="1"><g transform="translate(875.763976, 795.999871)"><g><path d="M 2.203125 0 L 2.203125 -4.203125 L 7.203125 -4.203125 C 10.003906 -4.203125 11.9375 -4.882812 13 -6.25 C 14.0625 -7.613281 14.59375 -9.460938 14.59375 -11.796875 L 14.59375 -35 L 19 -35 L 19 -11.546875 C 19 -8.078125 18.039062 -5.285156 16.125 -3.171875 C 14.207031 -1.054688 11.234375 0 7.203125 0 Z M 2.203125 0 "/></g></g></g><g fill="#ffb382" fill-opacity="1"><g transform="translate(901.560239, 795.999871)"><g><path d="M 5.09375 0 L 5.09375 -35 L 9.5 -35 L 9.5 0 Z M 5.09375 0 "/></g></g></g><g fill="#ffb382" fill-opacity="1"><g transform="translate(917.957973, 795.999871)"><g><path d="M 5.09375 0 L 5.09375 -35 L 17.203125 -35 C 20.796875 -35 23.9375 -34.253906 26.625 -32.765625 C 29.3125 -31.285156 31.40625 -29.238281 32.90625 -26.625 C 34.40625 -24.007812 35.15625 -20.96875 35.15625 -17.5 C 35.15625 -14.0625 34.40625 -11.023438 32.90625 -8.390625 C 31.40625 -5.765625 29.3125 -3.707031 26.625 -2.21875 C 23.9375 -0.738281 20.796875 0 17.203125 0 Z M 9.5 -4.203125 L 17.203125 -4.203125 C 19.867188 -4.203125 22.207031 -4.757812 24.21875 -5.875 C 26.238281 -6.988281 27.816406 -8.546875 28.953125 -10.546875 C 30.085938 -12.546875 30.65625 -14.863281 30.65625 -17.5 C 30.65625 -20.164062 30.078125 -22.488281 28.921875 -24.46875 C 27.773438 -26.457031 26.179688 -28.007812 24.140625 -29.125 C 22.109375 -30.238281 19.726562 -30.796875 17 -30.796875 L 9.5 -30.796875 Z M 9.5 -4.203125 "/></g></g></g><g fill="#ffb382" fill-opacity="1"><g transform="translate(972.000174, 795.999871)"><g><path d="M 5.09375 0 L 5.09375 -35 L 26.34375 -35 L 26.34375 -30.90625 L 9.5 -30.90625 L 9.5 -19.84375 L 25.09375 -19.84375 L 25.09375 -15.796875 L 9.5 -15.796875 L 9.5 -4.09375 L 26.90625 -4.09375 L 26.90625 0 Z M 5.09375 0 "/></g></g></g><g fill="#ffb382" fill-opacity="1"><g transform="translate(1003.945484, 795.999871)"><g><path d="M 14.796875 0 L 0.84375 -35 L 5.546875 -35 L 11.34375 -20.25 L 16.84375 -6.34375 L 22.296875 -20.25 L 28.15625 -35 L 32.796875 -35 L 18.90625 0 Z M 14.796875 0 "/></g></g></g><g fill="#ffb382" fill-opacity="1"><g transform="translate(1039.390259, 795.999871)"><g><path d="M 5.09375 0 L 5.09375 -35 L 26.34375 -35 L 26.34375 -30.90625 L 9.5 -30.90625 L 9.5 -19.84375 L 25.09375 -19.84375 L 25.09375 -15.796875 L 9.5 -15.796875 L 9.5 -4.09375 L 26.90625 -4.09375 L 26.90625 0 Z M 5.09375 0 "/></g></g></g><g fill="#ffb382" fill-opacity="1"><g transform="translate(1071.335615, 795.999871)"><g><path d="M 5.09375 0 L 5.09375 -35 L 9.25 -35 L 28.59375 -7.59375 L 28.59375 -35 L 32.90625 -35 L 32.90625 0 L 28.796875 0 L 9.453125 -27.40625 L 9.453125 0 Z M 5.09375 0 "/></g></g></g><g fill="#ffb382" fill-opacity="1"><g transform="translate(1111.12974, 795.999871)"><g><path d="M 13.546875 0 L 13.546875 -30.796875 L 1.703125 -30.796875 L 1.703125 -35 L 29.75 -35 L 29.75 -30.796875 L 17.953125 -30.796875 L 17.953125 0 Z M 13.546875 0 "/></g></g></g><g fill="#ffb382" fill-opacity="1"><g transform="translate(1144.424858, 795.999871)"><g><path d="M 16.75 0.65625 C 13.945312 0.65625 11.519531 0.179688 9.46875 -0.765625 C 7.425781 -1.722656 5.84375 -3.054688 4.71875 -4.765625 C 3.601562 -6.484375 3.03125 -8.476562 3 -10.75 L 7.40625 -10.75 C 7.46875 -8.519531 8.359375 -6.757812 10.078125 -5.46875 C 11.796875 -4.1875 14.019531 -3.546875 16.75 -3.546875 C 19.21875 -3.546875 21.175781 -4.03125 22.625 -5 C 24.070312 -5.96875 24.796875 -7.316406 24.796875 -9.046875 C 24.796875 -10.679688 24.09375 -11.988281 22.6875 -12.96875 C 21.289062 -13.957031 19.007812 -14.816406 15.84375 -15.546875 C 11.550781 -16.578125 8.40625 -17.898438 6.40625 -19.515625 C 4.40625 -21.140625 3.40625 -23.300781 3.40625 -26 C 3.40625 -28.96875 4.53125 -31.316406 6.78125 -33.046875 C 9.03125 -34.785156 12.070312 -35.65625 15.90625 -35.65625 C 19.832031 -35.65625 22.9375 -34.671875 25.21875 -32.703125 C 27.507812 -30.734375 28.671875 -28.050781 28.703125 -24.65625 L 24.34375 -24.65625 C 24.3125 -26.75 23.535156 -28.40625 22.015625 -29.625 C 20.503906 -30.84375 18.46875 -31.453125 15.90625 -31.453125 C 13.40625 -31.453125 11.445312 -30.957031 10.03125 -29.96875 C 8.613281 -28.988281 7.90625 -27.664062 7.90625 -26 C 7.90625 -24.5625 8.5625 -23.351562 9.875 -22.375 C 11.1875 -21.394531 13.546875 -20.488281 16.953125 -19.65625 C 21.421875 -18.550781 24.601562 -17.171875 26.5 -15.515625 C 28.394531 -13.867188 29.34375 -11.765625 29.34375 -9.203125 C 29.34375 -6.171875 28.203125 -3.769531 25.921875 -2 C 23.640625 -0.226562 20.582031 0.65625 16.75 0.65625 Z M 16.75 0.65625 "/></g></g></g><g fill="#ffb382" fill-opacity="1"><g transform="translate(1192.767901, 795.999871)"><g><path d="M 5.09375 0 L 5.09375 -35 L 9.25 -35 L 28.59375 -7.59375 L 28.59375 -35 L 32.90625 -35 L 32.90625 0 L 28.796875 0 L 9.453125 -27.40625 L 9.453125 0 Z M 5.09375 0 "/></g></g></g><g fill="#ffb382" fill-opacity="1"><g transform="translate(1232.562026, 795.999871)"><g><path d="M 5.09375 0 L 5.09375 -35 L 26.34375 -35 L 26.34375 -30.90625 L 9.5 -30.90625 L 9.5 -19.84375 L 25.09375 -19.84375 L 25.09375 -15.796875 L 9.5 -15.796875 L 9.5 -4.09375 L 26.90625 -4.09375 L 26.90625 0 Z M 5.09375 0 "/></g></g></g><g fill="#ffb382" fill-opacity="1"><g transform="translate(1264.507336, 795.999871)"><g><path d="M 0.84375 0 L 15.25 -35 L 19.34375 -35 L 33.75 0 L 29.09375 0 L 25.796875 -7.953125 L 8.75 -7.953125 L 5.546875 0 Z M 10.453125 -12.046875 L 24.15625 -12.046875 L 17.296875 -28.84375 Z M 10.453125 -12.046875 "/></g></g></g><g fill="#ffb382" fill-opacity="1"><g transform="translate(1300.902017, 795.999871)"><g><path d="M 5.09375 0 L 5.09375 -35 L 18.453125 -35 C 20.878906 -35 22.992188 -34.539062 24.796875 -33.625 C 26.597656 -32.707031 28 -31.414062 29 -29.75 C 30 -28.082031 30.5 -26.082031 30.5 -23.75 C 30.5 -20.914062 29.765625 -18.570312 28.296875 -16.71875 C 26.828125 -14.875 24.8125 -13.632812 22.25 -13 L 31.046875 0 L 25.75 0 L 17.203125 -12.546875 L 9.5 -12.546875 L 9.5 0 Z M 9.5 -16.75 L 17.953125 -16.75 C 20.515625 -16.75 22.492188 -17.359375 23.890625 -18.578125 C 25.296875 -19.796875 26 -21.519531 26 -23.75 C 26 -25.976562 25.296875 -27.707031 23.890625 -28.9375 C 22.492188 -30.175781 20.515625 -30.796875 17.953125 -30.796875 L 9.5 -30.796875 Z M 9.5 -16.75 "/></g></g></g><g fill="#ffb382" fill-opacity="1"><g transform="translate(1350.944828, 795.999871)"><g><path d="M 14 0 L 14 -12.59375 L 0.84375 -35 L 5.953125 -35 L 11.65625 -25.203125 L 16.203125 -17.296875 L 26.5 -35 L 31.453125 -35 L 18.296875 -12.59375 L 18.296875 0 Z M 14 0 "/></g></g></g><g fill="#ffb382" fill-opacity="1"><g transform="translate(1385.039796, 795.999871)"><g><path d="M 21 0.65625 C 17.46875 0.65625 14.332031 -0.117188 11.59375 -1.671875 C 8.863281 -3.222656 6.734375 -5.363281 5.203125 -8.09375 C 3.671875 -10.832031 2.90625 -13.96875 2.90625 -17.5 C 2.90625 -21.0625 3.671875 -24.203125 5.203125 -26.921875 C 6.734375 -29.640625 8.863281 -31.773438 11.59375 -33.328125 C 14.332031 -34.878906 17.46875 -35.65625 21 -35.65625 C 24.5625 -35.65625 27.703125 -34.878906 30.421875 -33.328125 C 33.140625 -31.773438 35.273438 -29.640625 36.828125 -26.921875 C 38.378906 -24.203125 39.15625 -21.0625 39.15625 -17.5 C 39.15625 -13.96875 38.378906 -10.832031 36.828125 -8.09375 C 35.273438 -5.363281 33.140625 -3.222656 30.421875 -1.671875 C 27.703125 -0.117188 24.5625 0.65625 21 0.65625 Z M 7.40625 -17.5 C 7.40625 -14.800781 7.976562 -12.414062 9.125 -10.34375 C 10.269531 -8.28125 11.867188 -6.664062 13.921875 -5.5 C 15.972656 -4.332031 18.332031 -3.75 21 -3.75 C 23.695312 -3.75 26.0625 -4.332031 28.09375 -5.5 C 30.132812 -6.664062 31.726562 -8.28125 32.875 -10.34375 C 34.019531 -12.414062 34.59375 -14.800781 34.59375 -17.5 C 34.59375 -20.226562 34.019531 -22.617188 32.875 -24.671875 C 31.726562 -26.722656 30.132812 -28.332031 28.09375 -29.5 C 26.0625 -30.664062 23.695312 -31.25 21 -31.25 C 18.332031 -31.25 15.972656 -30.664062 13.921875 -29.5 C 11.867188 -28.332031 10.269531 -26.722656 9.125 -24.671875 C 7.976562 -22.617188 7.40625 -20.226562 7.40625 -17.5 Z M 7.40625 -17.5 "/></g></g></g><g fill="#ffb382" fill-opacity="1"><g transform="translate(1428.83331, 795.999871)"><g><path d="M 18.203125 0.59375 C 13.960938 0.59375 10.648438 -0.71875 8.265625 -3.34375 C 5.890625 -5.976562 4.703125 -9.613281 4.703125 -14.25 L 4.703125 -35 L 9.046875 -35 L 9.046875 -14.546875 C 9.046875 -10.984375 9.828125 -8.285156 11.390625 -6.453125 C 12.960938 -4.617188 15.234375 -3.703125 18.203125 -3.703125 C 24.296875 -3.703125 27.34375 -7.316406 27.34375 -14.546875 L 27.34375 -35 L 31.75 -35 L 31.75 -14.25 C 31.75 -9.613281 30.546875 -5.976562 28.140625 -3.34375 C 25.742188 -0.71875 22.429688 0.59375 18.203125 0.59375 Z M 18.203125 0.59375 "/></g></g></g></svg>