<svg xmlns="http://www.w3.org/2000/svg" xmlns:xlink="http://www.w3.org/1999/xlink" width="2000" zoomAndPan="magnify" viewBox="0 0 1500 1499.999933" height="2000" preserveAspectRatio="xMidYMid meet" version="1.0"><defs><g/><clipPath id="5b8b0aa6d2"><path d="M 526.445312 752 L 973.445312 752 L 973.445312 764 L 526.445312 764 Z M 526.445312 752 " clip-rule="nonzero"/></clipPath><clipPath id="33a4b4e141"><path d="M 742 438.71875 L 751 438.71875 L 751 480 L 742 480 Z M 742 438.71875 " clip-rule="nonzero"/></clipPath></defs><g clip-path="url(#5b8b0aa6d2)"><path fill="#ffffff" d="M 549.394531 763.265625 C 536.734375 763.265625 526.460938 760.820312 526.460938 757.8125 C 526.460938 754.800781 536.734375 752.363281 549.394531 752.363281 L 950.601562 752.363281 C 963.261719 752.363281 973.53125 754.800781 973.53125 757.8125 C 973.53125 760.820312 963.261719 763.265625 950.601562 763.265625 Z M 549.394531 763.265625 " fill-opacity="1" fill-rule="nonzero"/></g><path fill="#ffffff" d="M 836.109375 556.402344 C 814.074219 534.367188 783.628906 520.738281 749.996094 520.738281 C 716.367188 520.738281 685.925781 534.367188 663.886719 556.402344 C 643.046875 577.242188 629.726562 605.601562 628.34375 637.0625 L 871.652344 637.0625 C 870.265625 605.601562 856.949219 577.242188 836.109375 556.402344 M 749.996094 509.832031 C 786.636719 509.832031 819.804688 524.683594 843.816406 548.691406 C 867.824219 572.703125 882.679688 605.875 882.679688 642.511719 L 882.679688 647.96875 L 617.316406 647.96875 L 617.316406 642.511719 C 617.316406 605.875 632.164062 572.703125 656.175781 548.691406 C 680.1875 524.683594 713.359375 509.832031 749.996094 509.832031 Z M 749.996094 509.832031 " fill-opacity="1" fill-rule="nonzero"/><path fill="#ffffff" d="M 628.21875 642.511719 L 628.21875 657.367188 L 871.769531 657.367188 L 871.769531 642.511719 L 882.679688 642.511719 L 882.679688 668.269531 L 617.316406 668.269531 L 617.316406 642.511719 Z M 628.21875 642.511719 " fill-opacity="1" fill-rule="nonzero"/><path fill="#ffffff" d="M 645.589844 642.511719 L 656.492188 642.511719 L 656.492188 662.816406 L 645.589844 662.816406 Z M 645.589844 642.511719 " fill-opacity="1" fill-rule="nonzero"/><path fill="#ffffff" d="M 673.863281 642.511719 L 684.765625 642.511719 L 684.765625 662.816406 L 673.863281 662.816406 Z M 673.863281 642.511719 " fill-opacity="1" fill-rule="nonzero"/><path fill="#ffffff" d="M 702.136719 642.511719 L 713.039062 642.511719 L 713.039062 662.816406 L 702.136719 662.816406 Z M 702.136719 642.511719 " fill-opacity="1" fill-rule="nonzero"/><path fill="#ffffff" d="M 730.40625 642.511719 L 741.3125 642.511719 L 741.3125 662.816406 L 730.40625 662.816406 Z M 730.40625 642.511719 " fill-opacity="1" fill-rule="nonzero"/><path fill="#ffffff" d="M 758.679688 642.511719 L 769.582031 642.511719 L 769.582031 662.816406 L 758.679688 662.816406 Z M 758.679688 642.511719 " fill-opacity="1" fill-rule="nonzero"/><path fill="#ffffff" d="M 786.953125 642.511719 L 797.855469 642.511719 L 797.855469 662.816406 L 786.953125 662.816406 Z M 786.953125 642.511719 " fill-opacity="1" fill-rule="nonzero"/><path fill="#ffffff" d="M 815.226562 642.511719 L 826.128906 642.511719 L 826.128906 662.816406 L 815.226562 662.816406 Z M 815.226562 642.511719 " fill-opacity="1" fill-rule="nonzero"/><path fill="#ffffff" d="M 843.5 642.511719 L 854.402344 642.511719 L 854.402344 662.816406 L 843.5 662.816406 Z M 843.5 642.511719 " fill-opacity="1" fill-rule="nonzero"/><path fill="#ffffff" d="M 716.957031 517.199219 C 716.957031 504.839844 719.933594 493.546875 724.746094 485.285156 C 730.070312 476.128906 737.722656 470.46875 746.4375 470.46875 C 755.148438 470.46875 762.804688 476.128906 768.132812 485.285156 C 772.941406 493.546875 775.914062 504.839844 775.914062 517.199219 L 765.011719 517.199219 C 765.011719 506.769531 762.605469 497.414062 758.71875 490.738281 C 755.351562 484.953125 750.992188 481.371094 746.441406 481.371094 C 741.886719 481.371094 737.519531 484.949219 734.15625 490.738281 C 730.273438 497.414062 727.863281 506.769531 727.863281 517.199219 Z M 716.957031 517.199219 " fill-opacity="1" fill-rule="nonzero"/><g clip-path="url(#33a4b4e141)"><path fill="#ffffff" d="M 750.5 475.917969 C 750.5 478.164062 748.679688 479.980469 746.4375 479.980469 C 744.191406 479.980469 742.375 478.164062 742.375 475.917969 L 742.375 442.78125 C 742.375 440.539062 744.191406 438.71875 746.4375 438.71875 C 748.679688 438.71875 750.5 440.539062 750.5 442.78125 Z M 750.5 475.917969 " fill-opacity="1" fill-rule="nonzero"/></g><path fill="#ffffff" d="M 799.902344 555.359375 C 786.933594 533.96875 769.273438 520.738281 749.996094 520.738281 C 730.726562 520.738281 713.0625 533.972656 700.089844 555.359375 C 687.355469 576.367188 679.214844 605.089844 678.378906 637.0625 L 821.613281 637.0625 C 820.78125 605.089844 812.640625 576.367188 799.902344 555.359375 M 749.996094 509.832031 C 773.324219 509.832031 794.238281 525.082031 809.1875 549.738281 C 823.648438 573.585938 832.589844 606.394531 832.589844 642.511719 L 832.589844 647.96875 L 667.40625 647.96875 L 667.40625 642.511719 C 667.40625 606.394531 676.347656 573.585938 690.808594 549.738281 C 705.753906 525.082031 726.667969 509.832031 749.996094 509.832031 Z M 749.996094 509.832031 " fill-opacity="1" fill-rule="nonzero"/><path fill="#ffffff" d="M 760.6875 553.484375 C 757.078125 533.253906 753.226562 520.738281 749.996094 520.738281 C 746.761719 520.738281 742.914062 533.253906 739.304688 553.484375 C 735.464844 575.019531 733.007812 604.40625 732.757812 637.0625 L 767.234375 637.0625 C 766.984375 604.40625 764.535156 575.019531 760.6875 553.484375 M 749.996094 509.832031 C 759.308594 509.832031 766.8125 525.796875 771.425781 551.613281 C 775.585938 574.929688 778.160156 607.074219 778.160156 642.511719 L 778.160156 647.96875 L 721.832031 647.96875 L 721.832031 642.511719 C 721.832031 607.074219 724.410156 574.929688 728.570312 551.613281 C 733.179688 525.796875 740.6875 509.832031 749.996094 509.832031 Z M 749.996094 509.832031 " fill-opacity="1" fill-rule="nonzero"/><path fill="#ffffff" d="M 897.652344 742.964844 L 602.34375 742.964844 L 602.34375 752.363281 L 897.652344 752.363281 Z M 596.890625 732.054688 L 908.558594 732.054688 L 908.558594 763.265625 L 591.441406 763.265625 L 591.441406 732.054688 Z M 596.890625 732.054688 " fill-opacity="1" fill-rule="nonzero"/><path fill="#ffffff" d="M 622.40625 668.269531 C 616.878906 668.269531 611.863281 670.519531 608.242188 674.144531 L 608.21875 674.167969 C 604.59375 677.789062 602.339844 682.808594 602.339844 688.335938 L 602.339844 732.054688 L 642.472656 732.054688 L 642.472656 688.335938 C 642.472656 682.808594 640.222656 677.789062 636.597656 674.167969 L 636.574219 674.144531 C 632.949219 670.519531 627.933594 668.269531 622.40625 668.269531 M 622.40625 657.367188 C 630.90625 657.367188 638.640625 660.847656 644.257812 666.460938 L 644.285156 666.476562 C 649.890625 672.097656 653.375 679.835938 653.375 688.335938 L 653.375 742.964844 L 591.433594 742.964844 L 591.433594 688.335938 C 591.433594 679.835938 594.917969 672.097656 600.527344 666.476562 L 600.550781 666.460938 C 606.167969 660.84375 613.910156 657.367188 622.40625 657.367188 Z M 622.40625 657.367188 " fill-opacity="1" fill-rule="nonzero"/><path fill="#ffffff" d="M 673.4375 657.367188 C 681.964844 657.367188 689.707031 660.851562 695.316406 666.460938 L 695.308594 666.46875 C 700.929688 672.089844 704.410156 679.832031 704.410156 688.335938 L 704.410156 742.964844 L 642.472656 742.964844 L 642.472656 688.335938 C 642.472656 679.832031 645.957031 672.089844 651.578125 666.46875 L 651.566406 666.460938 C 657.175781 660.847656 664.921875 657.367188 673.4375 657.367188 M 673.445312 668.269531 C 667.929688 668.269531 662.914062 670.53125 659.277344 674.167969 L 659.253906 674.167969 C 655.628906 677.792969 653.375 682.808594 653.375 688.335938 L 653.375 732.054688 L 693.507812 732.054688 L 693.507812 688.335938 C 693.507812 682.808594 691.257812 677.792969 687.628906 674.167969 L 687.613281 674.167969 C 683.972656 670.53125 678.957031 668.269531 673.445312 668.269531 Z M 673.445312 668.269531 " fill-opacity="1" fill-rule="nonzero"/><path fill="#ffffff" d="M 724.480469 668.269531 C 718.953125 668.269531 713.9375 670.519531 710.3125 674.144531 L 710.289062 674.167969 C 706.667969 677.789062 704.410156 682.808594 704.410156 688.335938 L 704.410156 732.054688 L 744.542969 732.054688 L 744.542969 688.335938 C 744.542969 682.808594 742.289062 677.789062 738.664062 674.167969 L 738.644531 674.144531 C 735.023438 670.519531 730.007812 668.269531 724.480469 668.269531 M 724.480469 657.367188 C 732.972656 657.367188 740.710938 660.847656 746.335938 666.460938 L 746.355469 666.476562 C 751.964844 672.097656 755.449219 679.835938 755.449219 688.335938 L 755.449219 742.964844 L 693.507812 742.964844 L 693.507812 688.335938 C 693.507812 679.835938 696.992188 672.097656 702.601562 666.476562 L 702.625 666.460938 C 708.242188 660.84375 715.980469 657.367188 724.480469 657.367188 Z M 724.480469 657.367188 " fill-opacity="1" fill-rule="nonzero"/><path fill="#ffffff" d="M 775.511719 657.367188 C 784.011719 657.367188 791.75 660.847656 797.367188 666.460938 L 797.390625 666.476562 C 803 672.097656 806.484375 679.835938 806.484375 688.335938 L 806.484375 742.964844 L 744.542969 742.964844 L 744.542969 688.335938 C 744.542969 679.835938 748.027344 672.097656 753.636719 666.476562 L 753.660156 666.460938 C 759.277344 660.84375 767.015625 657.367188 775.511719 657.367188 M 775.511719 668.269531 C 769.992188 668.269531 764.96875 670.519531 761.347656 674.144531 L 761.328125 674.167969 C 757.703125 677.789062 755.449219 682.808594 755.449219 688.335938 L 755.449219 732.054688 L 795.582031 732.054688 L 795.582031 688.335938 C 795.582031 682.808594 793.328125 677.789062 789.703125 674.167969 L 789.679688 674.144531 C 786.054688 670.519531 781.042969 668.269531 775.511719 668.269531 Z M 775.511719 668.269531 " fill-opacity="1" fill-rule="nonzero"/><path fill="#ffffff" d="M 826.554688 668.269531 C 821.035156 668.269531 816.023438 670.53125 812.382812 674.167969 L 812.363281 674.167969 C 808.738281 677.792969 806.484375 682.808594 806.484375 688.335938 L 806.484375 732.054688 L 846.617188 732.054688 L 846.617188 688.335938 C 846.617188 682.808594 844.363281 677.792969 840.738281 674.167969 L 840.71875 674.167969 C 837.078125 670.53125 832.066406 668.269531 826.554688 668.269531 M 826.546875 657.367188 C 835.074219 657.367188 842.816406 660.851562 848.425781 666.460938 L 848.417969 666.46875 C 854.03125 672.089844 857.523438 679.832031 857.523438 688.335938 L 857.523438 742.964844 L 795.582031 742.964844 L 795.582031 688.335938 C 795.582031 679.832031 799.0625 672.089844 804.683594 666.46875 L 804.675781 666.460938 C 810.285156 660.847656 818.027344 657.367188 826.546875 657.367188 Z M 826.546875 657.367188 " fill-opacity="1" fill-rule="nonzero"/><path fill="#ffffff" d="M 877.585938 657.367188 C 886.085938 657.367188 893.820312 660.847656 899.441406 666.460938 L 899.464844 666.476562 C 905.074219 672.097656 908.554688 679.835938 908.554688 688.335938 L 908.554688 742.964844 L 846.617188 742.964844 L 846.617188 688.335938 C 846.617188 679.835938 850.101562 672.097656 855.710938 666.476562 L 855.730469 666.460938 C 861.351562 660.84375 869.089844 657.367188 877.585938 657.367188 M 877.585938 668.269531 C 872.058594 668.269531 867.046875 670.519531 863.421875 674.144531 L 863.402344 674.167969 C 859.777344 677.789062 857.523438 682.808594 857.523438 688.335938 L 857.523438 732.054688 L 897.652344 732.054688 L 897.652344 688.335938 C 897.652344 682.808594 895.398438 677.789062 891.773438 674.167969 L 891.757812 674.144531 C 888.128906 670.519531 883.117188 668.269531 877.585938 668.269531 Z M 877.585938 668.269531 " fill-opacity="1" fill-rule="nonzero"/><path fill="#ffffff" d="M 637.304688 781.964844 C 624.640625 781.964844 614.371094 779.523438 614.371094 776.511719 C 614.371094 773.5 624.640625 771.058594 637.304688 771.058594 L 862.691406 771.058594 C 875.351562 771.058594 885.621094 773.5 885.621094 776.511719 C 885.621094 779.523438 875.351562 781.964844 862.691406 781.964844 Z M 637.304688 781.964844 " fill-opacity="1" fill-rule="nonzero"/><path fill="#ffffff" d="M 702.28125 802.863281 C 689.613281 802.863281 679.34375 800.425781 679.34375 797.414062 C 679.34375 794.402344 689.617188 791.960938 702.28125 791.960938 L 797.71875 791.960938 C 810.378906 791.960938 820.648438 794.402344 820.648438 797.414062 C 820.648438 800.425781 810.378906 802.863281 797.71875 802.863281 Z M 702.28125 802.863281 " fill-opacity="1" fill-rule="nonzero"/><g fill="#ef7750" fill-opacity="1"><g transform="translate(312.415378, 967.997825)"><g><path d="M 17.015625 0 L 17.015625 -116.765625 L 30.6875 -116.765625 L 76.5625 -47.53125 L 122.09375 -116.765625 L 135.765625 -116.765625 L 135.765625 0 L 121.09375 0 L 121.09375 -89.234375 L 82.390625 -31.03125 L 70.390625 -31.03125 L 31.6875 -89.40625 L 31.6875 0 Z M 17.015625 0 "/></g></g></g><g fill="#ef7750" fill-opacity="1"><g transform="translate(471.202371, 967.997825)"><g><path d="M 2.828125 0 L 50.875 -116.765625 L 64.546875 -116.765625 L 112.59375 0 L 97.078125 0 L 86.0625 -26.515625 L 29.1875 -26.515625 L 18.515625 0 Z M 34.859375 -40.203125 L 80.5625 -40.203125 L 57.71875 -96.234375 Z M 34.859375 -40.203125 "/></g></g></g><g fill="#ef7750" fill-opacity="1"><g transform="translate(592.628129, 967.997825)"><g><path d="M 55.875 2.171875 C 46.53125 2.171875 38.4375 0.585938 31.59375 -2.578125 C 24.757812 -5.753906 19.476562 -10.203125 15.75 -15.921875 C 12.03125 -21.648438 10.117188 -28.296875 10.015625 -35.859375 L 24.6875 -35.859375 C 24.90625 -28.410156 27.878906 -22.546875 33.609375 -18.265625 C 39.335938 -13.984375 46.757812 -11.84375 55.875 -11.84375 C 64.101562 -11.84375 70.632812 -13.453125 75.46875 -16.671875 C 80.3125 -19.898438 82.734375 -24.40625 82.734375 -30.1875 C 82.734375 -35.632812 80.394531 -40 75.71875 -43.28125 C 71.050781 -46.5625 63.4375 -49.425781 52.875 -51.875 C 38.53125 -55.320312 28.019531 -59.738281 21.34375 -65.125 C 14.675781 -70.519531 11.34375 -77.722656 11.34375 -86.734375 C 11.34375 -96.628906 15.09375 -104.46875 22.59375 -110.25 C 30.101562 -116.03125 40.253906 -118.921875 53.046875 -118.921875 C 66.160156 -118.921875 76.523438 -115.640625 84.140625 -109.078125 C 91.765625 -102.523438 95.628906 -93.578125 95.734375 -82.234375 L 81.234375 -82.234375 C 81.117188 -89.234375 78.53125 -94.765625 73.46875 -98.828125 C 68.414062 -102.890625 61.609375 -104.921875 53.046875 -104.921875 C 44.703125 -104.921875 38.164062 -103.28125 33.4375 -100 C 28.71875 -96.71875 26.359375 -92.296875 26.359375 -86.734375 C 26.359375 -81.953125 28.550781 -77.921875 32.9375 -74.640625 C 37.332031 -71.359375 45.203125 -68.328125 56.546875 -65.546875 C 71.441406 -61.878906 82.054688 -57.289062 88.390625 -51.78125 C 94.734375 -46.28125 97.90625 -39.25 97.90625 -30.6875 C 97.90625 -20.570312 94.097656 -12.566406 86.484375 -6.671875 C 78.867188 -0.773438 68.664062 2.171875 55.875 2.171875 Z M 55.875 2.171875 "/></g></g></g><g fill="#ef7750" fill-opacity="1"><g transform="translate(706.547839, 967.997825)"><g><path d="M 7.34375 0 L 7.34375 -14.015625 L 24.015625 -14.015625 C 33.359375 -14.015625 39.804688 -16.289062 43.359375 -20.84375 C 46.921875 -25.40625 48.703125 -31.578125 48.703125 -39.359375 L 48.703125 -116.765625 L 63.390625 -116.765625 L 63.390625 -38.53125 C 63.390625 -26.96875 60.191406 -17.65625 53.796875 -10.59375 C 47.398438 -3.53125 37.472656 0 24.015625 0 Z M 7.34375 0 "/></g></g></g><g fill="#ef7750" fill-opacity="1"><g transform="translate(792.613392, 967.997825)"><g><path d="M 17.015625 0 L 17.015625 -116.765625 L 31.6875 -116.765625 L 31.6875 0 Z M 17.015625 0 "/></g></g></g><g fill="#ef7750" fill-opacity="1"><g transform="translate(847.322059, 967.997825)"><g><path d="M 17.015625 0 L 17.015625 -116.765625 L 57.375 -116.765625 C 69.382812 -116.765625 79.863281 -114.285156 88.8125 -109.328125 C 97.769531 -104.378906 104.75 -97.539062 109.75 -88.8125 C 114.757812 -80.082031 117.265625 -69.9375 117.265625 -58.375 C 117.265625 -46.925781 114.757812 -36.804688 109.75 -28.015625 C 104.75 -19.234375 97.769531 -12.367188 88.8125 -7.421875 C 79.863281 -2.472656 69.382812 0 57.375 0 Z M 31.6875 -14.015625 L 57.375 -14.015625 C 66.269531 -14.015625 74.082031 -15.875 80.8125 -19.59375 C 87.539062 -23.320312 92.796875 -28.519531 96.578125 -35.1875 C 100.359375 -41.863281 102.25 -49.59375 102.25 -58.375 C 102.25 -67.269531 100.328125 -75.023438 96.484375 -81.640625 C 92.648438 -88.265625 87.34375 -93.4375 80.5625 -97.15625 C 73.78125 -100.882812 65.832031 -102.75 56.71875 -102.75 L 31.6875 -102.75 Z M 31.6875 -14.015625 "/></g></g></g><g fill="#ef7750" fill-opacity="1"><g transform="translate(980.255815, 967.997825)"><g><path d="M 17.015625 0 L 17.015625 -116.765625 L 31.6875 -116.765625 L 31.6875 -14.015625 L 88.40625 -14.015625 L 88.40625 0 Z M 17.015625 0 "/></g></g></g><g fill="#ef7750" fill-opacity="1"><g transform="translate(1079.831903, 967.997825)"><g><path d="M 46.703125 0 L 46.703125 -42.03125 L 2.828125 -116.765625 L 19.84375 -116.765625 L 38.859375 -84.0625 L 54.046875 -57.71875 L 88.40625 -116.765625 L 104.921875 -116.765625 L 61.046875 -42.03125 L 61.046875 0 Z M 46.703125 0 "/></g></g></g></svg>